<?xml version="1.0" encoding="UTF-8"?>
<svg id="Layer_1" data-name="Layer 1" xmlns="http://www.w3.org/2000/svg" viewBox="0 0 60 60">
  <defs>
    <style>
      .cls-1 {
        fill: #6bc484;
      }

      .cls-2 {
        fill: #eb475f;
      }

      .cls-3 {
        fill: #e92845;
      }

      .cls-4 {
        fill: #52ba6f;
      }
    </style>
  </defs>
  <g>
    <path class="cls-3" d="m38.14,35.07H15.62v-5.69c0-.77-.87-1.16-1.4-.63L.26,42.6c-.34.34-.34.91,0,1.25l13.94,13.84c.54.53,1.42.13,1.42-.64v-5.68h22.52c.89,0,1.61-.72,1.61-1.61v-13.07c0-.89-.72-1.61-1.61-1.61Z"/>
    <path class="cls-2" d="m38.93,40.72v-3.33c0-.89.1-1.61-.79-1.61l-23.38-.09-.06-6.29-11.42,11.33h35.65Z"/>
  </g>
  <g>
    <path class="cls-4" d="m21.86,8.63h22.52s0-5.69,0-5.69c0-.77.87-1.16,1.4-.63l13.96,13.86c.34.34.34.91,0,1.25l-13.94,13.84c-.54.53-1.42.13-1.42-.64v-5.68s-22.52,0-22.52,0c-.89,0-1.61-.72-1.61-1.61v-13.07c0-.89.72-1.61,1.61-1.61Z"/>
    <path class="cls-1" d="m21.07,14.28v-3.33c0-.89-.1-1.61.79-1.61l23.38-.09.06-6.29,11.42,11.33H21.07Z"/>
  </g>
</svg>