<?xml version="1.0" encoding="UTF-8"?>
<svg id="Layer_1" data-name="Layer 1" xmlns="http://www.w3.org/2000/svg" viewBox="0 0 40 40">
  <defs>
    <style>
      .cls-1 {
        fill: #6bc484;
      }

      .cls-2 {
        fill: #eb475f;
      }

      .cls-3 {
        fill: #e92845;
      }

      .cls-4 {
        fill: #52ba6f;
      }
    </style>
  </defs>
  <g>
    <path class="cls-3" d="m25.43,23.38h-15.02v-3.79c0-.51-.58-.77-.93-.42L.17,28.4c-.23.23-.23.61,0,.84l9.29,9.23c.36.36.95.09.95-.43v-3.79h15.02c.59,0,1.08-.48,1.08-1.08v-8.72c0-.59-.48-1.08-1.08-1.08Z"/>
    <path class="cls-2" d="m25.95,27.15v-2.22c0-.59.07-1.08-.53-1.08l-15.59-.06-.04-4.19-7.61,7.56h23.77Z"/>
  </g>
  <g>
    <path class="cls-4" d="m14.57,5.75h15.02s0-3.79,0-3.79c0-.51.58-.77.93-.42l9.3,9.24c.23.23.23.61,0,.84l-9.29,9.23c-.36.36-.95.09-.95-.43v-3.79s-15.02,0-15.02,0c-.59,0-1.08-.48-1.08-1.08V6.83c0-.59.48-1.08,1.08-1.08Z"/>
    <path class="cls-1" d="m14.05,9.52v-2.22c0-.59-.07-1.08.53-1.08l15.59-.06.04-4.19,7.61,7.56H14.05Z"/>
  </g>
</svg>