<svg width="19" height="19" viewBox="0 0 19 19" fill="none" xmlns="http://www.w3.org/2000/svg">
<path d="M14.8332 10.8334C14.6122 10.8334 14.4002 10.9212 14.2439 11.0774C14.0876 11.2337 13.9998 11.4457 13.9998 11.6667V11.9834L12.7665 10.75C12.331 10.318 11.7424 10.0756 11.129 10.0756C10.5156 10.0756 9.92698 10.318 9.4915 10.75L8.90817 11.3334L6.8415 9.2667C6.39994 8.84637 5.81364 8.61194 5.204 8.61194C4.59437 8.61194 4.00807 8.84637 3.5665 9.2667L2.33317 10.5V5.83337C2.33317 5.61236 2.42097 5.40039 2.57725 5.24411C2.73353 5.08783 2.94549 5.00004 3.1665 5.00004H8.99984C9.22085 5.00004 9.43281 4.91224 9.58909 4.75596C9.74537 4.59968 9.83317 4.38772 9.83317 4.1667C9.83317 3.94569 9.74537 3.73373 9.58909 3.57745C9.43281 3.42117 9.22085 3.33337 8.99984 3.33337H3.1665C2.50346 3.33337 1.86758 3.59676 1.39874 4.0656C0.929896 4.53444 0.666504 5.17033 0.666504 5.83337V15.8334C0.666504 16.4964 0.929896 17.1323 1.39874 17.6011C1.86758 18.07 2.50346 18.3334 3.1665 18.3334H13.1665C13.8295 18.3334 14.4654 18.07 14.9343 17.6011C15.4031 17.1323 15.6665 16.4964 15.6665 15.8334V11.6667C15.6665 11.4457 15.5787 11.2337 15.4224 11.0774C15.2661 10.9212 15.0542 10.8334 14.8332 10.8334ZM3.1665 16.6667C2.94549 16.6667 2.73353 16.5789 2.57725 16.4226C2.42097 16.2663 2.33317 16.0544 2.33317 15.8334V12.8584L4.74984 10.4417C4.87226 10.325 5.03489 10.26 5.204 10.26C5.37312 10.26 5.53574 10.325 5.65817 10.4417L8.29984 13.0834L11.8832 16.6667H3.1665ZM13.9998 15.8334C13.9986 15.9929 13.946 16.1478 13.8498 16.275L10.0915 12.5L10.6748 11.9167C10.7346 11.8557 10.8059 11.8073 10.8846 11.7742C10.9633 11.7411 11.0478 11.7241 11.1332 11.7241C11.2185 11.7241 11.303 11.7411 11.3817 11.7742C11.4604 11.8073 11.5318 11.8557 11.5915 11.9167L13.9998 14.3417V15.8334ZM17.9248 3.57504L15.4248 1.07504C15.3456 0.999168 15.2521 0.939698 15.1498 0.900036C14.947 0.816687 14.7194 0.816687 14.5165 0.900036C14.4142 0.939698 14.3208 0.999168 14.2415 1.07504L11.7415 3.57504C11.5846 3.73196 11.4964 3.94478 11.4964 4.1667C11.4964 4.38862 11.5846 4.60145 11.7415 4.75837C11.8984 4.91529 12.1113 5.00345 12.3332 5.00345C12.5551 5.00345 12.7679 4.91529 12.9248 4.75837L13.9998 3.67504V8.33337C13.9998 8.55438 14.0876 8.76634 14.2439 8.92262C14.4002 9.07891 14.6122 9.1667 14.8332 9.1667C15.0542 9.1667 15.2661 9.07891 15.4224 8.92262C15.5787 8.76634 15.6665 8.55438 15.6665 8.33337V3.67504L16.7415 4.75837C16.819 4.83648 16.9111 4.89847 17.0127 4.94078C17.1142 4.98309 17.2232 5.00487 17.3332 5.00487C17.4432 5.00487 17.5521 4.98309 17.6537 4.94078C17.7552 4.89847 17.8474 4.83648 17.9248 4.75837C18.0029 4.6809 18.0649 4.58873 18.1072 4.48718C18.1496 4.38563 18.1713 4.27671 18.1713 4.1667C18.1713 4.05669 18.1496 3.94777 18.1072 3.84622C18.0649 3.74467 18.0029 3.6525 17.9248 3.57504Z" fill="#8C8C8C"/>
</svg>
